<svg width="1118" height="802.81944" xmlns="http://www.w3.org/2000/svg">

 <title>Savings</title>
 <g>
  <title>background</title>
  <rect fill="none" id="canvas_background" height="602" width="802" y="-1" x="-1"/>
 </g>
 <g>
  <title>Layer 1</title>
  <ellipse id="svg_26" fill="#fbd56f" ry="39.86537" rx="37.55691" cy="664.53343" cx="542.56303"/>
  <ellipse id="svg_27" opacity="0.1" ry="39.86537" rx="37.55691" cy="664.53343" cx="542.56303"/>
  <ellipse id="svg_28" fill="#fbd56f" ry="38.9775" rx="37.55691" cy="665.4213" cx="549.04466"/>
  <path id="svg_29" fill="#fbd56f" d="m564.25656,700.743791l-3.90663,-2.17528s-1.82727,7.62536 -1.22995,13.05926a2.707,2.707 0 0 0 2.03428,2.33847c8.987,2.23181 51.82048,11.74046 81.27524,-1.65234a2.70278,2.70278 0 0 0 1.56546,-2.172c0.36128,-3.33959 -0.91772,-10.23078 -1.42825,-11.57336c-1.09871,-2.88951 -78.31015,2.17525 -78.31015,2.17525z"/>
  <path id="svg_30" opacity="0.1" d="m564.25656,700.743791l-3.90663,-2.17528s-1.82727,7.62536 -1.22995,13.05926a2.707,2.707 0 0 0 2.03428,2.33847c8.987,2.23181 51.82048,11.74046 81.27524,-1.65234a2.70278,2.70278 0 0 0 1.56546,-2.172c0.36128,-3.33959 -0.91772,-10.23078 -1.42825,-11.57336c-1.09871,-2.88951 -78.31015,2.17525 -78.31015,2.17525z"/>
  <ellipse id="svg_31" fill="#fbd56f" ry="9.26638" rx="41.10839" cy="698.56851" cx="601.45832"/>
  <path id="svg_32" fill="#fbd56f" d="m579.96224,687.072101l-3.90663,-2.17528s-1.82728,7.62536 -1.23,13.05926a2.707,2.707 0 0 0 2.03429,2.33848c8.987,2.2318 51.82048,11.74045 81.27523,-1.65235a2.70279,2.70279 0 0 0 1.56547,-2.172c0.36127,-3.33959 -0.91772,-10.23078 -1.42825,-11.57336c-1.0987,-2.88951 -78.31011,2.17525 -78.31011,2.17525z"/>
  <path id="svg_33" opacity="0.1" d="m579.96224,687.072101l-3.90663,-2.17528s-1.82728,7.62536 -1.23,13.05926a2.707,2.707 0 0 0 2.03429,2.33848c8.987,2.2318 51.82048,11.74045 81.27523,-1.65235a2.70279,2.70279 0 0 0 1.56547,-2.172c0.36127,-3.33959 -0.91772,-10.23078 -1.42825,-11.57336c-1.0987,-2.88951 -78.31011,2.17525 -78.31011,2.17525z"/>
  <ellipse id="svg_34" fill="#fbd56f" ry="9.26638" rx="41.10839" cy="684.89682" cx="617.164"/>
  <path id="svg_35" fill="#fbd56f" d="m593.84687,669.103311l-3.90663,-2.17528s-1.82728,7.62536 -1.23,13.05926a2.707,2.707 0 0 0 2.03429,2.33847c8.987,2.23181 51.82047,11.74046 81.27523,-1.65234a2.70279,2.70279 0 0 0 1.56547,-2.172c0.36127,-3.33958 -0.91773,-10.23077 -1.42825,-11.57335c-1.0987,-2.88952 -78.31011,2.17524 -78.31011,2.17524z"/>
  <path id="svg_36" opacity="0.1" d="m593.84687,669.103311l-3.90663,-2.17528s-1.82728,7.62536 -1.23,13.05926a2.707,2.707 0 0 0 2.03429,2.33847c8.987,2.23181 51.82047,11.74046 81.27523,-1.65234a2.70279,2.70279 0 0 0 1.56547,-2.172c0.36127,-3.33958 -0.91773,-10.23077 -1.42825,-11.57335c-1.0987,-2.88952 -78.31011,2.17524 -78.31011,2.17524z"/>
  <ellipse id="svg_37" fill="#fbd56f" ry="9.26638" rx="41.10839" cy="666.92803" cx="631.04863"/>
  <path id="svg_38" fill="#fbd56f" d="m578.47062,650.397961l-3.90662,-2.17524s-1.82727,7.62536 -1.23,13.05926a2.707,2.707 0 0 0 2.03429,2.33848c8.987,2.23181 51.82047,11.74045 81.27523,-1.65234a2.70281,2.70281 0 0 0 1.56547,-2.172c0.36127,-3.33959 -0.91773,-10.23077 -1.42825,-11.57336c-1.09874,-2.88956 -78.31012,2.1752 -78.31012,2.1752z"/>
  <path id="svg_39" opacity="0.1" d="m578.47062,650.397961l-3.90662,-2.17524s-1.82727,7.62536 -1.23,13.05926a2.707,2.707 0 0 0 2.03429,2.33848c8.987,2.23181 51.82047,11.74045 81.27523,-1.65234a2.70281,2.70281 0 0 0 1.56547,-2.172c0.36127,-3.33959 -0.91773,-10.23077 -1.42825,-11.57336c-1.09874,-2.88956 -78.31012,2.1752 -78.31012,2.1752z"/>
  <ellipse id="svg_40" fill="#fbd56f" ry="9.26638" rx="41.10839" cy="648.22268" cx="615.67239"/>
  <path id="svg_41" fill="#fbd56f" d="m613.06171,635.386721l-3.90663,-2.17528s-1.82727,7.62536 -1.23,13.05926a2.707,2.707 0 0 0 2.03429,2.33847c8.987,2.23181 51.82047,11.74046 81.27523,-1.65234a2.70276,2.70276 0 0 0 1.56546,-2.172c0.36128,-3.33958 -0.91772,-10.23077 -1.42825,-11.57335c-1.09869,-2.88955 -78.3101,2.17524 -78.3101,2.17524z"/>
  <path id="svg_42" opacity="0.1" d="m613.06171,635.386721l-3.90663,-2.17528s-1.82727,7.62536 -1.23,13.05926a2.707,2.707 0 0 0 2.03429,2.33847c8.987,2.23181 51.82047,11.74046 81.27523,-1.65234a2.70276,2.70276 0 0 0 1.56546,-2.172c0.36128,-3.33958 -0.91772,-10.23077 -1.42825,-11.57335c-1.09869,-2.88955 -78.3101,2.17524 -78.3101,2.17524z"/>
  <ellipse id="svg_43" fill="#fbd56f" ry="9.26638" rx="41.10839" cy="633.21142" cx="650.26347"/>
  <path id="svg_44" fill="#fbd56f" d="m589.69041,625.297161l-3.90663,-2.17528s-1.82728,7.62536 -1.23,13.05926a2.707,2.707 0 0 0 2.03429,2.33847c8.987,2.23181 51.82047,11.74046 81.27523,-1.65234a2.70279,2.70279 0 0 0 1.56547,-2.172c0.36127,-3.33958 -0.91773,-10.23077 -1.42825,-11.57335c-1.0987,-2.88952 -78.31011,2.17524 -78.31011,2.17524z"/>
  <path id="svg_45" opacity="0.1" d="m589.69041,625.297161l-3.90663,-2.17528s-1.82728,7.62536 -1.23,13.05926a2.707,2.707 0 0 0 2.03429,2.33847c8.987,2.23181 51.82047,11.74046 81.27523,-1.65234a2.70279,2.70279 0 0 0 1.56547,-2.172c0.36127,-3.33958 -0.91773,-10.23077 -1.42825,-11.57335c-1.0987,-2.88952 -78.31011,2.17524 -78.31011,2.17524z"/>
  <ellipse id="svg_46" fill="#fbd56f" ry="9.26638" rx="41.10839" cy="623.12188" cx="626.89217"/>
  <path id="svg_47" fill="#fbd56f" d="m605.29411,605.819091l-3.90663,-2.17528s-1.82727,7.62536 -1.23,13.05926a2.707,2.707 0 0 0 2.03428,2.33847c8.987,2.23181 51.82048,11.74046 81.27524,-1.65234a2.70278,2.70278 0 0 0 1.56546,-2.172c0.36128,-3.33958 -0.91772,-10.23077 -1.42825,-11.57335c-1.09869,-2.88952 -78.3101,2.17524 -78.3101,2.17524z"/>
  <path id="svg_48" opacity="0.1" d="m605.29411,605.819091l-3.90663,-2.17528s-1.82727,7.62536 -1.23,13.05926a2.707,2.707 0 0 0 2.03428,2.33847c8.987,2.23181 51.82048,11.74046 81.27524,-1.65234a2.70278,2.70278 0 0 0 1.56546,-2.172c0.36128,-3.33958 -0.91772,-10.23077 -1.42825,-11.57335c-1.09869,-2.88952 -78.3101,2.17524 -78.3101,2.17524z"/>
  <ellipse id="svg_49" fill="#fbd56f" ry="9.26638" rx="41.10839" cy="603.64381" cx="642.49587"/>
  <path id="svg_50" fill="#fbd56f" d="m612.99087,582.699101l-3.90663,-2.17528s-1.82727,7.62536 -1.23,13.05926a2.707,2.707 0 0 0 2.03428,2.33847c8.987,2.23181 51.82048,11.74046 81.27524,-1.65234a2.70278,2.70278 0 0 0 1.56546,-2.172c0.36128,-3.33958 -0.91772,-10.23077 -1.42825,-11.57335c-1.09869,-2.88952 -78.3101,2.17524 -78.3101,2.17524z"/>
  <path id="svg_51" opacity="0.1" d="m612.99087,582.699101l-3.90663,-2.17528s-1.82727,7.62536 -1.23,13.05926a2.707,2.707 0 0 0 2.03428,2.33847c8.987,2.23181 51.82048,11.74046 81.27524,-1.65234a2.70278,2.70278 0 0 0 1.56546,-2.172c0.36128,-3.33958 -0.91772,-10.23077 -1.42825,-11.57335c-1.09869,-2.88952 -78.3101,2.17524 -78.3101,2.17524z"/>
  <ellipse id="svg_52" fill="#fbd56f" ry="9.26638" rx="41.10839" cy="580.52382" cx="650.19263"/>
  <ellipse id="svg_110" fill="#fbd56f" ry="39.86537" rx="37.55691" cy="721.4106" cx="627.87865"/>
  <ellipse id="svg_111" opacity="0.1" ry="39.86537" rx="37.55691" cy="721.4106" cx="627.87865"/>
  <ellipse id="svg_112" fill="#fbd56f" ry="38.9775" rx="37.55691" cy="722.29847" cx="634.36028"/>
  <path id="svg_115" fill="#f3f3f3" d="m509.62131,684.343991a40.43626,40.43626 0 0 1 5.02749,9.18054c0.33594,0.84417 0.66474,1.73114 0.97583,2.66168c4.99732,14.93518 -2.92108,32.845 -5.18487,30.91315s-9.31824,-5.5163 -10.68228,-0.47931s-6.40284,10.1853 -6.40284,10.1853c-9.18017,9.23346 -17.48977,-0.7428 -22.94418,-11.05048a99.84636,99.84636 0 0 1 -4.74548,-10.48523c-1.211,-3.16558 -1.90656,-5.35339 -1.90656,-5.35339l38.23682,-32.57873s3.6965,1.69708 7.62607,7.00647z"/>
  <path id="svg_116" fill="#f3f3f3" d="m449.3573,705.176021a40.43668,40.43668 0 0 1 5.0275,9.18054c0.33593,0.84418 0.66473,1.73114 0.97583,2.66168c4.99731,14.93518 -2.92109,32.845 -5.18485,30.91315s-9.31824,-5.5163 -10.68228,-0.47931s-6.40283,10.1853 -6.40283,10.1853c-9.18018,9.23346 -17.48978,-0.7428 -22.94419,-11.05047a99.84934,99.84934 0 0 1 -4.74548,-10.48519c-1.211,-3.16559 -1.90655,-5.3534 -1.90655,-5.3534l38.23681,-32.57873s3.69647,1.69698 7.62604,7.00643z"/>
  <path id="svg_117" fill="#f3f3f3" d="m328.35394,733.955621a40.43562,40.43562 0 0 1 -1.98837,10.27637c-0.28012,0.86431 -0.59305,1.757 -0.94739,2.672c-5.68417,14.6875 -23.21017,23.42243 -23.72018,20.49042s-3.65347,-10.19366 -7.91815,-7.18634s-11.42957,3.75519 -11.42957,3.75519c-12.96033,1.25 -12.991,-11.73371 -10.61188,-23.15033a99.84576,99.84576 0 0 1 3.03812,-11.10083c1.08792,-3.2099 1.94867,-5.3382 1.94867,-5.3382l50.22916,-0.67926s1.76272,3.66558 1.39959,10.26098z"/>
  <path id="svg_118" fill="#f3f3f3" d="m263.45518,717.587641a40.4359,40.4359 0 0 1 -1.98837,10.27636c-0.2801,0.86432 -0.593,1.757 -0.9474,2.672c-5.68416,14.6875 -23.21022,23.42243 -23.72022,20.49042s-3.65347,-10.19367 -7.91816,-7.18634s-11.42957,3.75519 -11.42957,3.75519c-12.96033,1.25 -12.991,-11.73371 -10.61189,-23.15033a99.84793,99.84793 0 0 1 3.03812,-11.10083c1.08793,-3.2099 1.94866,-5.3382 1.94866,-5.3382l50.22915,-0.67926s1.76281,3.66553 1.39968,10.26099z"/>
  <path id="svg_119" opacity="0.2" d="m509.62131,684.343991a40.43626,40.43626 0 0 1 5.02749,9.18054c0.33594,0.84417 0.66474,1.73114 0.97583,2.66168c4.99732,14.93518 -2.92108,32.845 -5.18487,30.91315s-9.31824,-5.5163 -10.68228,-0.47931s-6.40284,10.1853 -6.40284,10.1853c-9.18017,9.23346 -17.48977,-0.7428 -22.94418,-11.05048a99.84636,99.84636 0 0 1 -4.74548,-10.48523c-1.211,-3.16558 -1.90656,-5.35339 -1.90656,-5.35339l38.23682,-32.57873s3.6965,1.69708 7.62607,7.00647z"/>
  <path id="svg_120" opacity="0.2" d="m449.3573,705.176021a40.43668,40.43668 0 0 1 5.0275,9.18054c0.33593,0.84418 0.66473,1.73114 0.97583,2.66168c4.99731,14.93518 -2.92109,32.845 -5.18485,30.91315s-9.31824,-5.5163 -10.68228,-0.47931s-6.40283,10.1853 -6.40283,10.1853c-9.18018,9.23346 -17.48978,-0.7428 -22.94419,-11.05047a99.84934,99.84934 0 0 1 -4.74548,-10.48519c-1.211,-3.16559 -1.90655,-5.3534 -1.90655,-5.3534l38.23681,-32.57873s3.69647,1.69698 7.62604,7.00643z"/>
  <path id="svg_121" opacity="0.2" d="m328.35394,733.955621a40.43562,40.43562 0 0 1 -1.98837,10.27637c-0.28012,0.86431 -0.59305,1.757 -0.94739,2.672c-5.68417,14.6875 -23.21017,23.42243 -23.72018,20.49042s-3.65347,-10.19366 -7.91815,-7.18634s-11.42957,3.75519 -11.42957,3.75519c-12.96033,1.25 -12.991,-11.73371 -10.61188,-23.15033a99.84576,99.84576 0 0 1 3.03812,-11.10083c1.08792,-3.2099 1.94867,-5.3382 1.94867,-5.3382l50.22916,-0.67926s1.76272,3.66558 1.39959,10.26098z"/>
  <path id="svg_122" opacity="0.2" d="m263.45518,717.587641a40.4359,40.4359 0 0 1 -1.98837,10.27636c-0.2801,0.86432 -0.593,1.757 -0.9474,2.672c-5.68416,14.6875 -23.21022,23.42243 -23.72022,20.49042s-3.65347,-10.19367 -7.91816,-7.18634s-11.42957,3.75519 -11.42957,3.75519c-12.96033,1.25 -12.991,-11.73371 -10.61189,-23.15033a99.84793,99.84793 0 0 1 3.03812,-11.10083c1.08793,-3.2099 1.94866,-5.3382 1.94866,-5.3382l50.22915,-0.67926s1.76281,3.66553 1.39968,10.26099z"/>
  <path id="svg_123" fill="#f3f3f3" d="m611.616,497.453851c0,134.15881 -45.384,242.91608 -254.82007,242.91608c-140.73325,0 -249.61209,-34.968 -254.82008,-242.91608c-3.359,-134.11682 114.08677,-242.91611 254.82,-242.91611s254.82015,108.75723 254.82015,242.91611z"/>
  <path id="svg_124" opacity="0.2" d="m308.99387,258.778521l0.02978,0a0.05793,0.05793 0 0 1 -0.02234,0.00742l-0.00744,-0.00742z"/>
  <path id="svg_125" opacity="0.2" d="m309.4924,258.696721c0.64728,-0.10413 1.92694,-0.28272 3.78693,-0.42411l-4.14411,0.49106q0.08926,-0.02233 0.22318,-0.04464c0.04468,-0.00746 0.08191,-0.01491 0.134,-0.02231z"/>
  <path id="svg_126" opacity="0.2" d="m497.78394,357.953721l-18.6,6.696a415.47072,415.47072 0 0 0 -30.55609,-36.42627a298.49667,298.49667 0 0 0 -38.69541,-34.66293c-47.62347,-35.29538 -84.45892,-36.19562 -96.62335,-35.288l27.95954,-3.28845a227.31886,227.31886 0 0 1 75.06219,27.1337a247.97733,247.97733 0 0 1 45.10873,33.32376c24.34368,22.59536 36.34439,42.51219 36.34439,42.51219z"/>
  <path id="svg_127" opacity="0.2" d="m329.63989,370.601771s-24.552,-81.84 -3.72,-104.16c0,0 32.736,-11.16 57.288,52.08l-53.568,52.08z"/>
  <path id="svg_128" fill="#f3f3f3" d="m453.96191,294.163351s65.10956,-55.32931 93.91315,-45.20471c0,0 23.3584,25.50644 -24.71442,73.37195l-69.19873,-28.16724z"/>
  <path id="svg_129" opacity="0.2" d="m453.96191,294.163351s65.10956,-55.32931 93.91315,-45.20471c0,0 23.3584,25.50644 -24.71442,73.37195l-69.19873,-28.16724z"/>
  <path id="svg_130" fill="#f3f3f3" d="m657,559.205861c0,72.113 -51.74841,129.084 -100.44,129.084s-75.888,-56.97107 -75.888,-129.084s39.554,-127.75406 88.164,-130.57205c77.004,-4.46402 88.164,58.45908 88.164,130.57205z"/>
  <path id="svg_131" opacity="0.2" d="m657,559.205861c0,72.113 -51.74841,129.084 -100.44,129.084s-75.888,-56.97107 -75.888,-129.084s39.554,-127.75406 88.164,-130.57205c77.004,-4.46402 88.164,58.45908 88.164,130.57205z"/>
  <ellipse id="svg_132" fill="#f3f3f3" ry="20.83203" rx="16.36801" cy="569.99383" cx="553.58395"/>
  <ellipse id="svg_133" fill="#f3f3f3" ry="20.83203" rx="16.36798" cy="552.13787" cx="611.61597"/>
  <path id="svg_134" fill="#fad46f" d="m464.61646,302.004931a29.70279,29.70279 0 0 1 -3.17692,13.43665a28.55141,28.55141 0 0 1 -12.8117,12.78192a298.49667,298.49667 0 0 0 -38.69541,-34.66293a29.161,29.161 0 0 1 6.39838,-11.44272a27.42912,27.42912 0 0 1 20.34094,-9.114c15.43061,-0.00001 27.94471,12.98274 27.94471,29.00108z"/>
 </g>
</svg>